<svg width="27" height="27" viewBox="0 0 27 27" fill="none" xmlns="http://www.w3.org/2000/svg">
<path d="M5.96543 1.09827H1.2627V5.801H5.96543V1.09827Z" fill="white"/>
<path d="M12.539 1.09827H7.83618V5.80106H12.539V1.09827Z" fill="white"/>
<path d="M5.96543 7.79504H1.2627V12.4977H5.96543V7.79504Z" fill="white"/>
<path d="M12.539 7.79504H7.83618V12.4978H12.539V7.79504Z" fill="white"/>
<path d="M19.1336 1.11841H14.4309V5.82114H19.1336V1.11841Z" fill="white"/>
<path d="M25.707 1.11853H21.0042V5.82132H25.707V1.11853Z" fill="white"/>
<path d="M19.1336 7.81531H14.4309V12.518H19.1336V7.81531Z" fill="white"/>
<path d="M25.707 7.81531H21.0042V12.518H25.707V7.81531Z" fill="white"/>
<path d="M5.96543 14.5121H1.2627V19.2149H5.96543V14.5121Z" fill="white"/>
<path d="M12.539 14.5121H7.83618V19.2149H12.539V14.5121Z" fill="white"/>
<path d="M5.96543 21.2089H1.2627V25.9116H5.96543V21.2089Z" fill="white"/>
<path d="M12.539 21.209H7.83618V25.9117H12.539V21.209Z" fill="white"/>
<path d="M19.1336 14.5121H14.4309V19.2148H19.1336V14.5121Z" fill="white"/>
<path d="M25.707 14.5121H21.0042V19.2149H25.707V14.5121Z" fill="white"/>
<path d="M19.1336 21.2089H14.4309V25.9116H19.1336V21.2089Z" fill="white"/>
<path d="M25.707 21.209H21.0042V25.9117H25.707V21.209Z" fill="white"/>
</svg>
