<svg width="34" height="34" viewBox="0 0 34 34" fill="none" xmlns="http://www.w3.org/2000/svg">
<path fill-rule="evenodd" clip-rule="evenodd" d="M17.0799 23.4534C16.0147 23.4534 14.9495 23.447 13.8844 23.4585C13.6607 23.4609 13.546 23.41 13.4725 23.1797C12.8207 21.1369 12.159 19.0971 11.4888 17.0603C11.4207 16.8533 11.4449 16.7456 11.6263 16.6149C13.3715 15.3578 15.1107 14.0924 16.8459 12.8216C17.0127 12.6993 17.1218 12.6982 17.2893 12.8209C19.0425 14.1053 20.8003 15.3837 22.5636 16.6542C22.7218 16.7683 22.7576 16.8672 22.6995 17.0439C22.0237 19.103 21.3494 21.1627 20.6853 23.2256C20.6229 23.4196 20.525 23.4578 20.3433 23.4566C19.2555 23.4499 18.1677 23.4533 17.0799 23.4534Z" fill="white"/>
<path fill-rule="evenodd" clip-rule="evenodd" d="M5.5188 24.5339C5.65793 24.5339 5.7585 24.5339 5.85907 24.5339C8.05744 24.5339 10.2557 24.5372 12.4541 24.5292C12.6927 24.5283 12.8045 24.5889 12.8827 24.8337C13.5557 26.9411 14.2465 29.0428 14.9313 31.1463C14.9588 31.2308 14.9801 31.3173 15.0126 31.432C14.9146 31.4436 14.8305 31.4621 14.7465 31.4622C12.5142 31.4638 10.2819 31.4621 8.04955 31.4661C7.86303 31.4664 7.74559 31.4408 7.67746 31.2276C6.98325 29.0558 6.27639 26.8882 5.57327 24.7192C5.55967 24.6771 5.54824 24.6344 5.5188 24.5339Z" fill="white"/>
<path fill-rule="evenodd" clip-rule="evenodd" d="M28.6193 24.556C28.3247 25.4604 28.0352 26.3483 27.7464 27.2365C27.3173 28.5558 26.8861 29.8745 26.4635 31.1958C26.4102 31.3623 26.3627 31.4683 26.1527 31.4676C23.888 31.4605 21.6234 31.4631 19.3588 31.4619C19.3058 31.4618 19.2527 31.4489 19.1599 31.4368C19.3308 30.9013 19.4921 30.3885 19.658 29.8772C20.2083 28.1823 20.7631 26.489 21.3072 24.7923C21.3688 24.6004 21.4529 24.5284 21.6607 24.5292C23.9027 24.5368 26.1447 24.5338 28.3867 24.5348C28.4533 24.5349 28.5199 24.5466 28.6193 24.556Z" fill="white"/>
<path fill-rule="evenodd" clip-rule="evenodd" d="M4.2475 20.6379C3.94021 19.7031 3.64258 18.8064 3.35092 17.9078C2.92973 16.6099 2.51629 15.3095 2.09021 14.0132C2.0339 13.8418 2.02397 13.7322 2.19078 13.6119C4.0622 12.2619 5.92813 10.9044 7.79615 9.54968C7.81336 9.53717 7.83818 9.5352 7.90013 9.51514C8.64085 11.794 9.38144 14.0726 10.1269 16.3661C8.16648 17.7904 6.22046 19.2044 4.2475 20.6379Z" fill="white"/>
<path fill-rule="evenodd" clip-rule="evenodd" d="M22.9266 7.06479C22.0836 7.67862 21.2812 8.26376 20.4779 8.84768C19.4169 9.61893 18.3539 10.3874 17.2954 11.1621C17.1551 11.2647 17.0504 11.3196 16.8804 11.1952C15.0459 9.85299 13.2055 8.51883 11.3658 7.18351C11.3203 7.15047 11.2653 7.13034 11.1807 7.08654C12.2258 6.32617 13.202 5.61523 14.1791 4.90558C15.0665 4.26101 15.9569 3.62065 16.8411 2.97159C16.9826 2.86776 17.0846 2.81302 17.2552 2.93773C19.126 4.30636 21.0029 5.66684 22.9266 7.06479Z" fill="white"/>
<path fill-rule="evenodd" clip-rule="evenodd" d="M26.2816 9.50305C27.6035 10.4627 28.8838 11.3921 30.164 12.3217C30.7498 12.747 31.3405 13.1659 31.9153 13.6055C32.0034 13.6728 32.0864 13.858 32.0564 13.952C31.3609 16.1327 30.6496 18.3084 29.9406 20.4848C29.9277 20.5246 29.9066 20.5617 29.8768 20.6279C28.9452 19.9523 28.0308 19.2905 27.1175 18.6268C26.1661 17.9355 25.213 17.2464 24.2701 16.5436C24.1796 16.4761 24.0841 16.2953 24.1125 16.2058C24.8212 13.9819 25.5463 11.7633 26.2816 9.50305Z" fill="white"/>
<path fill-rule="evenodd" clip-rule="evenodd" d="M25.3582 8.83357C24.6121 11.129 23.8709 13.41 23.1199 15.7205C21.4016 14.4721 19.7188 13.2494 17.9934 11.9958C19.9592 10.5668 21.9008 9.15542 23.8513 7.73755C24.3604 8.10781 24.8523 8.46563 25.3582 8.83357Z" fill="white"/>
<path fill-rule="evenodd" clip-rule="evenodd" d="M13.9646 24.5454C16.0528 24.5454 18.1222 24.5454 20.2479 24.5454C20.0982 25.0111 19.9572 25.4539 19.8135 25.8959C19.2419 27.6547 18.6646 29.4118 18.1029 31.1738C18.0315 31.398 17.9333 31.4784 17.7002 31.4686C17.2707 31.4505 16.8394 31.4752 16.4102 31.4546C16.3087 31.4497 16.1515 31.356 16.1227 31.269C15.3923 29.0639 14.6755 26.8543 13.9574 24.6451C13.9513 24.6257 13.9602 24.6012 13.9646 24.5454Z" fill="white"/>
<path fill-rule="evenodd" clip-rule="evenodd" d="M10.4802 17.4537C11.136 19.4733 11.7759 21.4438 12.4285 23.4534C12.2818 23.4534 12.1822 23.4534 12.0825 23.4534C9.88464 23.4534 7.68661 23.4479 5.48878 23.4606C5.22181 23.4621 5.10879 23.372 5.04141 23.1298C4.92961 22.7278 4.78165 22.3358 4.67251 21.9332C4.64762 21.8414 4.68312 21.6746 4.75118 21.6247C6.64002 20.2396 8.53661 18.8651 10.4802 17.4537Z" fill="white"/>
<path fill-rule="evenodd" clip-rule="evenodd" d="M16.143 11.9952C14.4403 13.2323 12.7668 14.4484 11.0507 15.6952C10.8889 15.1952 10.7389 14.7307 10.5881 14.2665C10.0271 12.5381 9.4702 10.8084 8.89893 9.08327C8.8295 8.87356 8.85521 8.75857 9.03867 8.63426C9.45061 8.35526 9.84766 8.05436 10.2842 7.73816C12.2249 9.14834 14.1711 10.5624 16.143 11.9952Z" fill="white"/>
<path fill-rule="evenodd" clip-rule="evenodd" d="M21.7566 23.4306C22.3983 21.454 23.0374 19.4853 23.6887 17.4788C24.3248 17.9413 24.9355 18.3861 25.5468 18.8299C26.8001 19.7398 28.0511 20.6527 29.3099 21.5548C29.487 21.6818 29.5349 21.7888 29.4534 22.001C29.3 22.4001 29.175 22.811 29.0559 23.2222C29.007 23.3911 28.9327 23.4574 28.7512 23.4568C26.4653 23.4509 24.1793 23.4524 21.8933 23.4511C21.8602 23.4511 21.8269 23.4415 21.7566 23.4306Z" fill="white"/>
</svg>
