<svg width="28" height="14" viewBox="0 0 28 14" fill="none" xmlns="http://www.w3.org/2000/svg">
<path d="M20.9965 14H7.00233L7 13.2732C7 11.8043 7.11667 10.9562 8.85267 10.5548C10.8173 10.101 12.754 9.69617 11.8218 7.97767C9.0615 2.8875 11.0355 0 13.9988 0C16.905 0 18.9292 2.78017 16.1758 7.97883C15.2717 9.68683 17.1395 10.0928 19.145 10.556C20.8833 10.9573 20.9988 11.8067 20.9988 13.2778L20.9965 14ZM26.6093 11.417C25.1043 11.0693 23.7043 10.7648 24.3822 9.48383C26.446 5.58483 24.9293 3.5 22.7488 3.5C21.273 3.5 20.1262 4.45317 20.1262 6.21133C20.1262 10.7648 22.7722 8.27633 22.7465 14H27.9977L28 13.4598C28 12.3562 27.9137 11.718 26.6093 11.417ZM0.00233333 14H5.2535C5.229 8.27633 7.87383 10.766 7.87383 6.21133C7.87383 4.45317 6.727 3.5 5.25117 3.5C3.07067 3.5 1.554 5.58483 3.619 9.48383C4.29683 10.766 2.89683 11.0693 1.39183 11.417C0.0863333 11.718 0 12.3562 0 13.4598L0.00233333 14Z" fill="white"/>
</svg>
