<svg width="35" height="35" viewBox="0 0 35 35" fill="none" xmlns="http://www.w3.org/2000/svg">
<path fill-rule="evenodd" clip-rule="evenodd" d="M17.5008 4.98145C18.938 7.47051 20.3435 9.90448 21.765 12.3662C18.9172 12.3662 16.0951 12.3662 13.2373 12.3662C14.6524 9.91519 16.0601 7.47688 17.5008 4.98145Z" fill="white"/>
<path fill-rule="evenodd" clip-rule="evenodd" d="M6.91231 23.3209C8.34332 25.7998 9.74493 28.2279 11.1647 30.6872C8.31861 30.6872 5.51546 30.6872 2.66016 30.6872C4.07941 28.2286 5.48298 25.797 6.91231 23.3209Z" fill="white"/>
<path fill-rule="evenodd" clip-rule="evenodd" d="M28.0893 23.3209C29.5179 25.7954 30.9194 28.2234 32.3401 30.6842C29.4963 30.6842 26.6933 30.6842 23.8394 30.6842C25.2545 28.2323 26.658 25.8007 28.0893 23.3209Z" fill="white"/>
<path fill-rule="evenodd" clip-rule="evenodd" d="M13.2466 30.6902C14.6728 28.2201 16.0737 25.7935 17.4979 23.327C18.9247 25.7982 20.3281 28.2288 21.7491 30.6902C18.9013 30.6902 16.0992 30.6902 13.2466 30.6902Z" fill="white"/>
<path fill-rule="evenodd" clip-rule="evenodd" d="M13.2456 13.5665C16.0989 13.5665 18.8979 13.5665 21.7493 13.5665C20.3295 16.0261 18.9258 18.4578 17.498 20.9314C16.0737 18.4645 14.6719 16.0369 13.2456 13.5665Z" fill="white"/>
<path fill-rule="evenodd" clip-rule="evenodd" d="M18.5466 21.5102C19.9646 19.0547 21.364 16.6311 22.7956 14.1519C24.2277 16.6324 25.627 19.0561 27.0437 21.5102C24.1958 21.5102 21.3944 21.5102 18.5466 21.5102Z" fill="white"/>
<path fill-rule="evenodd" clip-rule="evenodd" d="M22.7923 30.1016C21.3615 27.6237 19.9641 25.2031 18.5481 22.7506C21.3911 22.7506 24.1925 22.7506 27.0357 22.7506C25.6224 25.1986 24.2249 27.6196 22.7923 30.1016Z" fill="white"/>
<path fill-rule="evenodd" clip-rule="evenodd" d="M16.4506 21.513C13.6032 21.513 10.8058 21.513 7.95654 21.513C9.37306 19.0595 10.7726 16.6354 12.2035 14.1569C13.6334 16.6335 15.033 19.0576 16.4506 21.513Z" fill="white"/>
<path fill-rule="evenodd" clip-rule="evenodd" d="M7.96289 22.7461C10.8094 22.7461 13.6056 22.7461 16.4498 22.7461C15.0351 25.1967 13.6385 27.6162 12.2071 30.0957C10.7826 27.6288 9.38368 25.2063 7.96289 22.7461Z" fill="white"/>
</svg>
