<svg width="24" height="23" viewBox="0 0 24 23" fill="none" xmlns="http://www.w3.org/2000/svg">
<g clip-path="url(#clip0_2_89)">
<path d="M24 13.0487V9.95133C22.349 9.38879 21.306 9.23067 20.781 8.01646C20.254 6.79842 20.881 5.97042 21.628 4.46296L19.343 2.27317C17.782 2.98425 16.91 3.59087 15.636 3.08488C14.367 2.58079 14.2 1.57454 13.616 0H10.384C9.802 1.56687 9.635 2.57983 8.365 3.08488C7.094 3.59087 6.232 2.99096 4.657 2.27317L2.372 4.46296C3.117 5.96562 3.747 6.79554 3.219 8.0155C2.692 9.23354 1.635 9.39358 0 9.95133V13.0487C1.632 13.6045 2.692 13.7665 3.219 14.9835C3.749 16.2121 3.105 17.0593 2.372 18.5361L4.657 20.7268C6.219 20.0148 7.091 19.4091 8.364 19.9151C9.634 20.4192 9.801 21.4283 10.384 23H13.616C14.198 21.4322 14.366 20.4221 15.643 19.9122H15.644C16.906 19.4101 17.764 20.009 19.342 20.7278L21.627 18.537C20.883 17.0392 20.252 16.2054 20.779 14.9855C21.306 13.7674 22.367 13.6055 24 13.0487ZM12 15.3333C9.791 15.3333 8 13.617 8 11.5C8 9.38304 9.791 7.66667 12 7.66667C14.209 7.66667 16 9.38304 16 11.5C16 13.617 14.209 15.3333 12 15.3333Z" fill="white"/>
</g>
<defs>
<clipPath id="clip0_2_89">
<rect width="24" height="23" fill="white"/>
</clipPath>
</defs>
</svg>
