<svg width="32" height="32" viewBox="0 0 32 32" fill="none" xmlns="http://www.w3.org/2000/svg">
<path d="M16.0063 17.902L18.7323 28.8001H13.2795L16.0063 17.902Z" fill="white"/>
<path d="M17.9087 16.0005L28.7993 13.2788V18.7215L17.9087 16.0005Z" fill="white"/>
<path d="M16.0062 14.0991L13.2827 3.21423H18.7289L16.0062 14.0991Z" fill="white"/>
<path d="M14.1035 16.0006L3.19922 18.7251V13.2755L14.1035 16.0006Z" fill="white"/>
<path d="M17.4163 14.5768L20.4648 3.20007H28.7992V11.5297V11.5562L17.4163 14.6053" fill="white"/>
<path d="M14.5814 14.5918L3.19922 11.5432V3.21423H11.5316H11.5597L14.61 14.5918" fill="white"/>
<path d="M17.4163 17.4237L20.4648 28.8001H28.7992V20.4723V20.4439L17.4163 17.396" fill="white"/>
<path d="M14.5814 17.4099L3.19922 20.4584V28.7862H11.5316H11.5597L14.61 17.4099" fill="white"/>
</svg>
