<svg width="27" height="28" viewBox="0 0 27 28" fill="none" xmlns="http://www.w3.org/2000/svg">
<path d="M2.69325 18.3855C2.69325 18.3855 11.1915 23.3392 12.9195 24.346C13.1051 24.4545 13.2941 24.5 13.473 24.5C13.6733 24.5 13.86 24.4428 14.0175 24.3518C15.7568 23.345 24.3169 18.3867 24.3169 18.3867C24.5936 18.2257 24.75 17.9282 24.75 17.6213C24.75 16.961 24.0593 16.5317 23.4945 16.8583C23.4945 16.8583 15.561 21.476 13.8881 22.4233C13.6508 22.5575 13.3886 22.6112 13.0759 22.4303C11.2207 21.3477 3.52012 16.8595 3.52012 16.8595C2.95537 16.5305 2.2635 16.9587 2.2635 17.6213C2.2635 17.927 2.41763 18.2245 2.69325 18.3855ZM2.69325 14.7537C2.69325 14.7537 11.1915 19.7073 12.9195 20.7142C13.1051 20.8227 13.2941 20.8682 13.473 20.8682C13.6733 20.8682 13.86 20.811 14.0175 20.72C15.7568 19.7132 24.3169 14.7548 24.3169 14.7548C24.5936 14.5938 24.75 14.2963 24.75 13.9895C24.75 13.3292 24.0593 12.8998 23.4945 13.2265C23.4945 13.2265 15.561 17.8442 13.8881 18.7915C13.6508 18.9257 13.3886 18.9793 13.0759 18.7985C11.2207 17.7158 3.52012 13.2277 3.52012 13.2277C2.95537 12.8987 2.2635 13.3268 2.2635 13.9895C2.2635 14.2952 2.41763 14.5927 2.69325 14.7537ZM14.2481 3.72283C13.9714 3.5735 13.7182 3.5 13.4696 3.5C13.2187 3.5 12.9713 3.57583 12.7103 3.72283L2.71575 9.562C2.40525 9.7755 2.25 10.08 2.25 10.3763C2.25 10.675 2.40638 10.9655 2.71575 11.151L12.7103 16.9913C12.9589 17.1465 13.2131 17.2282 13.473 17.2282C13.7239 17.2282 13.9815 17.1523 14.2481 16.9913L24.2426 11.151C24.5745 10.9573 24.75 10.6598 24.75 10.3577C24.75 10.066 24.5869 9.77083 24.2426 9.562L14.2481 3.72283Z" fill="white"/>
</svg>
